<svg id="Vrstva_1" data-name="Vrstva 1" xmlns="http://www.w3.org/2000/svg" viewBox="0 0 28 28"><defs><style>.cls-1{fill:#e4003a;}.cls-2{fill:#fff;}</style></defs><title>logo-mini_new</title><path class="cls-1" d="M14,28a13.9,13.9,0,1,1,13.89-13.9A13.9,13.9,0,0,1,14,28Z"/><path class="cls-2" d="M9.58,15.89H8.12c-.55,0-.74-.18-.74-.73a.79.79,0,0,1,.74-.73H9.76a.67.67,0,0,0,.37-.18,2.69,2.69,0,0,0,.36-1.1H9.21a.79.79,0,0,1-.73-.73.79.79,0,0,1,.73-.73h1.47c.18,0,.36,0,.36-.19.73-1.64,1.28-3.47,2-5.12a.18.18,0,0,1,.19-.18c.18-.36.36-.55.73-.55s.55.19.73.55c.36,1.1.91,2.2,1.28,3.11.36.73.55,1.46.91,2.19,0,.19.18.19.37.19h1.46a.67.67,0,0,1,.73.73.79.79,0,0,1-.73.73H17.44A9,9,0,0,0,18,14.43a.63.63,0,0,0,.36.18H20c.18,0,.55.18.55.37a1.11,1.11,0,0,1-.18.73.69.69,0,0,1-.55.18H18.35a6.66,6.66,0,0,0,.74,1.65l1.09,2.74c.19.55.19.91-.36,1.1-.37.18-.73,0-.92-.55-.55-1.65-1.28-3.11-1.83-4.76-.18-.36-.18-.36-.54-.36H11.22c-.36,0-.36,0-.54.36a34,34,0,0,1-1.83,4.57c-.19.37-.37.55-.73.55a.48.48,0,0,1-.55-.55.66.66,0,0,1,.18-.54c.55-1.28.91-2.56,1.46-3.84C9.4,16.26,9.4,16.07,9.58,15.89Zm1.83-1.46h4.93c-.18-.37-.36-.92-.55-1.28a.63.63,0,0,0-.36-.18H12.14c-.18,0-.18,0-.37.18A2.68,2.68,0,0,1,11.41,14.43Zm4-2.74C14.88,10.41,14.52,9.31,14,8c-.55,1.28-.92,2.38-1.47,3.66Z"/></svg>