<svg id="Vrstva_1" data-name="Vrstva 1" xmlns="http://www.w3.org/2000/svg" viewBox="0 0 108 26"><defs><style>.cls-1{fill:#fff;}.cls-2{fill:#e4003a;}</style></defs><title>ADA_pools_new</title><path class="cls-1" d="M25.66,7.7H28l3.6,8.5h-2.5l-.7-1.5h-3.2l-.6,1.5h-2.5Zm2.1,5.1-.9-2.4-1,2.4Z"/><path class="cls-1" d="M32.36,7.8h3.3c3,0,4.7,1.7,4.7,4.2h0c0,2.5-1.8,4.3-4.8,4.3h-3.2Zm3.3,6.3c1.4,0,2.3-.7,2.3-2.1h0a2.05,2.05,0,0,0-2.3-2.1h-1v4.3h1Z"/><path class="cls-1" d="M44,7.7h2.3l3.5,8.5h-2.5l-.7-1.5h-3.3l-.6,1.5h-2.5Zm2,5.1-.9-2.4-1,2.4Z"/><path class="cls-1" d="M50.76,9.8h1.5v1.1a2.44,2.44,0,0,1,2.1-1.2,3,3,0,0,1,2.9,3.3h0a3.07,3.07,0,0,1-2.9,3.3,2.33,2.33,0,0,1-2.1-1.1V18h-1.5Zm5.1,3.2h0a1.85,1.85,0,0,0-1.8-2,1.92,1.92,0,0,0-1.9,2h0a1.92,1.92,0,0,0,1.9,2A1.85,1.85,0,0,0,55.86,13Z"/><path class="cls-1" d="M58.46,13h0a3.37,3.37,0,0,1,3.4-3.4,3.29,3.29,0,0,1,3.4,3.3h0a3.44,3.44,0,0,1-3.4,3.4A3.23,3.23,0,0,1,58.46,13Zm5.3,0h0a1.94,1.94,0,0,0-2-2,1.86,1.86,0,0,0-1.9,2h0a1.94,1.94,0,0,0,2,2A1.86,1.86,0,0,0,63.76,13Z"/><path class="cls-1" d="M66.46,13h0a3.37,3.37,0,0,1,3.4-3.4,3.29,3.29,0,0,1,3.4,3.3h0a3.44,3.44,0,0,1-3.4,3.4A3.18,3.18,0,0,1,66.46,13Zm5.3,0h0a1.94,1.94,0,0,0-2-2,1.92,1.92,0,0,0-1.9,2h0a1.94,1.94,0,0,0,2,2A1.92,1.92,0,0,0,71.76,13Z"/><path class="cls-1" d="M74.76,7.4h1.5v8.8h-1.5Z"/><path class="cls-1" d="M77.66,15.4l.7-1a4,4,0,0,0,2,.8c.7,0,1-.2,1-.7h0c0-.5-.7-.7-1.4-.9-.9-.2-2-.7-2-1.9h0a2.09,2.09,0,0,1,2.3-2,4.42,4.42,0,0,1,2.4.7l-.6,1.1a3.49,3.49,0,0,0-1.8-.6c-.6,0-.9.2-.9.7h0c0,.5.7.7,1.5.9s2,.7,2,1.9h0c0,1.3-1.1,2-2.4,2A6.25,6.25,0,0,1,77.66,15.4Z"/><path class="cls-1" d="M84,14.6h1.6v1.6H84Z"/><path class="cls-1" d="M86.76,13h0a3.37,3.37,0,0,1,3.4-3.4,3.29,3.29,0,0,1,3.4,3.3h0a3.44,3.44,0,0,1-3.4,3.4A3.29,3.29,0,0,1,86.76,13Zm5.3,0h0a1.94,1.94,0,0,0-2-2,1.92,1.92,0,0,0-1.9,2h0a1.94,1.94,0,0,0,2,2A1.86,1.86,0,0,0,92.06,13Z"/><path class="cls-1" d="M95.06,9.8h1.4v1.5a2.29,2.29,0,0,1,2.3-1.6v1.6h-.1c-1.3,0-2.2.8-2.2,2.5v2.5H95C95.06,16.3,95.06,9.8,95.06,9.8Z"/><path class="cls-1" d="M99.86,17.3l.6-1.1a4.45,4.45,0,0,0,2.3.7,1.8,1.8,0,0,0,2-2v-.5a2.53,2.53,0,0,1-2.2,1.1,2.84,2.84,0,0,1-2.9-2.9h0a2.86,2.86,0,0,1,2.9-3,2.64,2.64,0,0,1,2.2,1.1V9.8h1.5v5.1a2.92,2.92,0,0,1-.8,2.4,3.54,3.54,0,0,1-2.6.8A4.82,4.82,0,0,1,99.86,17.3Zm4.8-4.6h0a1.76,1.76,0,0,0-1.9-1.8,1.71,1.71,0,0,0-1.8,1.7h0a1.85,1.85,0,0,0,3.7.1Z"/><path class="cls-2" d="M10.86,19.8a7.6,7.6,0,1,1,7.6-7.6A7.6,7.6,0,0,1,10.86,19.8Z"/><path class="cls-1" d="M8.46,13.2h-.8c-.3,0-.4-.1-.4-.4a.43.43,0,0,1,.4-.4h.9a.35.35,0,0,0,.2-.1,1.42,1.42,0,0,0,.2-.6h-.7a.4.4,0,1,1,0-.8h.8c.1,0,.2,0,.2-.1A23.29,23.29,0,0,0,10.36,8a.1.1,0,0,1,.1-.1c.1-.2.2-.3.4-.3s.3.1.4.3c.2.6.4,1.1.6,1.7.2.4.3.8.5,1.2,0,.1.1.1.2.1h.8a.37.37,0,0,1,.4.4.43.43,0,0,1-.4.4h-.7a4.88,4.88,0,0,0,.3.7.35.35,0,0,0,.2.1h.9c.1,0,.3.1.3.2a.6.6,0,0,1-.1.4.37.37,0,0,1-.3.1h-.8a3.55,3.55,0,0,0,.4.9l.6,1.5c.1.3.1.5-.2.6s-.4,0-.5-.3c-.3-.9-.7-1.7-1-2.6-.1-.2-.1-.2-.3-.2H9.26c-.2,0-.2,0-.3.2a18.61,18.61,0,0,1-1,2.5c-.1.2-.2.3-.4.3a.27.27,0,0,1-.3-.3.37.37,0,0,1,.1-.3c.3-.7.5-1.4.8-2.1C8.36,13.4,8.36,13.3,8.46,13.2Zm1-.8h2.7c-.1-.2-.2-.5-.3-.7a.35.35,0,0,0-.2-.1H9.86c-.1,0-.1,0-.2.1A1.45,1.45,0,0,1,9.46,12.4Zm2.2-1.5c-.3-.7-.5-1.3-.8-2-.3.7-.5,1.3-.8,2Z"/></svg>