<?xml version="1.0" encoding="UTF-8"?>
<svg width="21px" height="20px" viewBox="0 0 21 20" version="1.1" xmlns="http://www.w3.org/2000/svg" xmlns:xlink="http://www.w3.org/1999/xlink">
    <title>8E6386C2-2B4E-4E05-9AEC-16DC32D5BD30</title>
    <defs>
        <path d="M8,0 L1134,0 C1138.41828,-8.11624501e-16 1142,3.581722 1142,8 L1142,62 C1142,66.418278 1138.41828,70 1134,70 L8,70 C3.581722,70 5.41083001e-16,66.418278 0,62 L0,8 C-5.41083001e-16,3.581722 3.581722,8.11624501e-16 8,0 Z" id="path-1"></path>
    </defs>
    <g id="Simple-level--(1366x768)" stroke="none" stroke-width="1" fill="none" fill-rule="evenodd">
        <g id="dashboard" transform="translate(-183.000000, -213.000000)">
            <rect id="bg" fill="#F0F3F5" x="0" y="0" width="1366" height="1271"></rect>
            <rect id="bg" stroke="#F0F3F5" fill="#FFFFFF" x="129.5" y="102.5" width="1199" height="1144" rx="8"></rect>
            <g id="error" transform="translate(158.000000, 188.000000)">
                <mask id="mask-2" fill="white">
                    <use xlink:href="#path-1"></use>
                </mask>
                <use id="Mask" fill="#FF1351" opacity="0.0599999987" xlink:href="#path-1"></use>
                <g id="icon/attention" mask="url(#mask-2)">
                    <g transform="translate(25.000000, 25.000000)">
                        <rect id="Rectangle" opacity="0" x="0" y="0" width="20.0337268" height="20"></rect>
                        <g id="attention" stroke-width="1" fill-rule="evenodd" transform="translate(1.001686, 2.000000)">
                            <path d="M7.87961552,0.649641294 C8.22901712,0.0397789961 9.01819309,-0.178866326 9.64424843,0.158401258 C9.81413508,0.24992234 9.96038179,0.377093415 10.0727273,0.530148921 L10.1504696,0.649641294 L17.8651275,14.1151748 C18.2166092,14.7286678 17.9885778,15.5025895 17.3589064,15.8418052 C17.2047726,15.9248399 17.0353836,15.9762638 16.8611354,15.9935119 L16.7297005,16 L1.30038458,16 C0.583584626,16 0,15.4341019 0,14.73287 C0,14.5598194 0.0363659101,14.3891219 0.10627781,14.2311273 L0.164957546,14.1151748 L7.87961552,0.649641294 Z M9.0151388,2.39037427 L2.25817044,14.1828446 L15.7711326,14.1828446 L9.0151388,2.39037427 Z" id="Triangle" fill="#FF1351" fill-rule="nonzero"></path>
                            <path d="M8.98462867,11.3939394 C8.44913322,11.3939394 8.01349073,11.8291394 8.01349073,12.3640727 C8.01349073,12.8985212 8.44913322,13.3333333 8.98462867,13.3333333 C9.52012411,13.3333333 9.95576661,12.8985212 9.95576661,12.3640727 C9.95576661,11.8291394 9.52012411,11.3939394 8.98462867,11.3939394 Z" id="Path" fill="#FF1351"></path>
                            <path d="M8.9847258,5 C8.5824,5 8.25622664,5.32562424 8.25622664,5.72727273 L8.25622664,10.0909091 C8.25622664,10.4925576 8.5824,10.8181818 8.9847258,10.8181818 C9.3870516,10.8181818 9.71322496,10.4925576 9.71322496,10.0909091 L9.71322496,5.72727273 C9.71322496,5.32562424 9.3870516,5 8.9847258,5 Z" id="Path" fill="#FF1351"></path>
                        </g>
                    </g>
                </g>
            </g>
        </g>
    </g>
</svg>