<svg width="16" height="16" xmlns="http://www.w3.org/2000/svg" xmlns:xlink="http://www.w3.org/1999/xlink"><defs><path d="M8 0h1182a8 8 0 0 1 8 8v601a8 8 0 0 1-8 8H8a8 8 0 0 1-8-8V8a8 8 0 0 1 8-8Z" id="a"/></defs><g fill="none" fill-rule="evenodd"><path fill="#F0F3F5" d="M-715-125H651v700H-715z"/><g transform="translate(-587 -85)"><mask id="b" fill="#fff"><use xlink:href="#a"/></mask><use fill="#FFF" xlink:href="#a"/><g mask="url(#b)"><path d="M587 85h16v16h-16z"/><path d="M595 87a6 6 0 1 1 0 12 6 6 0 0 1 0-12Zm0 1.09a4.91 4.91 0 1 0 0 9.82 4.91 4.91 0 0 0 0-9.82Zm.432 6.494.051.006a.202.202 0 0 1 .089.05.18.18 0 0 1 .06.136v.712l-.006.05a.195.195 0 0 1-.194.141v.001h-.792l-.05-.006a.185.185 0 0 1-.086-.05.185.185 0 0 1-.056-.136v-.712l.006-.05a.185.185 0 0 1 .05-.086.185.185 0 0 1 .136-.056h.792ZM595.104 90c.443 0 .807.07 1.092.212.285.141.493.321.624.54.13.219.196.445.196.68 0 .267-.06.499-.18.696a4.55 4.55 0 0 1-.532.68c-.17.181-.303.337-.396.468-.093.13-.156.27-.188.42a6.967 6.967 0 0 0-.04.272.438.438 0 0 1-.088.152c-.032.032-.077.048-.136.048h-.792l-.045-.005a.158.158 0 0 1-.075-.043.154.154 0 0 1-.048-.112c0-.112.003-.197.008-.256.027-.25.107-.472.24-.664.133-.192.317-.405.552-.64.181-.181.316-.33.404-.448a.706.706 0 0 0 .148-.368.552.552 0 0 0-.212-.52.922.922 0 0 0-.588-.192c-.517 0-.83.259-.936.776-.037.123-.115.184-.232.184h-.696l-.05-.006a.169.169 0 0 1-.082-.05.203.203 0 0 1-.052-.144c.01-.293.1-.568.268-.824s.41-.463.724-.62c.315-.157.685-.236 1.112-.236Z" fill="#6b7384" fill-rule="nonzero"/></g></g></g></svg>