<svg width="20" height="15" viewBox="0 0 20 15" fill="none" xmlns="http://www.w3.org/2000/svg">
<path d="M12.8333 0C12.6351 0.343549 12.4584 0.698345 12.3042 1.06246C10.7896 0.830699 9.24678 0.830699 7.73217 1.06246C7.57802 0.698345 7.40134 0.343549 7.20308 0C5.77634 0.235867 4.38936 0.658278 3.08023 1.25563C0.739222 4.52442 -0.322443 8.49287 0.0854137 12.4501C1.61101 13.5597 3.32326 14.4061 5.14665 14.9517C5.56184 14.4211 5.93239 13.859 6.25473 13.2711C5.65983 13.0589 5.08804 12.7903 4.54768 12.4694C4.69589 12.374 4.83608 12.2674 4.96696 12.1507C6.54269 12.885 8.2692 13.2664 10.0182 13.2664C11.7672 13.2664 13.4937 12.885 15.0695 12.1507C15.2092 12.2666 15.349 12.3728 15.4887 12.4694C14.9454 12.7878 14.3742 13.0593 13.7817 13.2807C14.0907 13.882 14.4513 14.4571 14.8598 15C16.6809 14.4562 18.3902 13.6097 19.9111 12.4984C20.3287 8.54044 19.2662 4.56875 16.9163 1.30393C15.6218 0.694209 14.2486 0.255638 12.8333 0ZM6.70395 10.19C6.2044 10.1553 5.73816 9.93466 5.40312 9.57447C5.06808 9.21429 4.89029 8.74252 4.90706 8.25821C4.88775 7.77326 5.06467 7.30014 5.40022 6.93942C5.73576 6.57869 6.20347 6.35879 6.70395 6.32646C7.20442 6.35879 7.67213 6.57869 8.00768 6.93942C8.34322 7.30014 8.52014 7.77326 8.50083 8.25821C8.52014 8.74316 8.34322 9.21627 8.00768 9.577C7.67213 9.93773 7.20442 10.1576 6.70395 10.19ZM13.3325 10.19C12.8329 10.1553 12.3667 9.93466 12.0316 9.57447C11.6966 9.21429 11.5188 8.74252 11.5356 8.25821C11.5163 7.77326 11.6932 7.30014 12.0287 6.93942C12.3643 6.57869 12.832 6.35879 13.3325 6.32646C13.8339 6.35638 14.3031 6.57556 14.6391 6.93684C14.9752 7.29812 15.1512 7.77262 15.1294 8.25821C15.1512 8.7438 14.9752 9.21829 14.6391 9.57957C14.3031 9.94085 13.8339 10.16 13.3325 10.19Z" fill="#7892E8"/>
</svg>
