<svg width="20" height="20" viewBox="0 0 20 20" fill="none" xmlns="http://www.w3.org/2000/svg">
<path fill-rule="evenodd" clip-rule="evenodd" d="M10 0C4.47664 0 0 4.58996 0 10.2531C0 14.7824 2.86445 18.6261 6.83878 19.983C7.33908 20.0755 7.51955 19.7599 7.51955 19.4886C7.51955 19.2449 7.51153 18.5993 7.50852 17.7451C4.72629 18.3639 4.13876 16.3696 4.13876 16.3696C3.68558 15.1854 3.02887 14.8698 3.02887 14.8698C2.12152 14.2335 3.09806 14.2479 3.09806 14.2479C4.10267 14.3198 4.62904 15.3046 4.62904 15.3046C5.52136 16.8713 6.97112 16.419 7.5386 16.1568C7.62984 15.4938 7.89052 15.0415 8.17526 14.7855C5.95548 14.5275 3.62142 13.6475 3.62142 9.71755C3.62142 8.60013 4.01143 7.68316 4.64809 6.96769C4.54682 6.70761 4.20092 5.6642 4.74734 4.2538C4.74734 4.2538 5.58652 3.97728 7.49649 5.30338C8.31221 5.07585 9.15364 4.95972 9.999 4.95797C10.8444 4.95938 11.6859 5.07552 12.5015 5.30338C14.4125 3.97625 15.2507 4.2538 15.2507 4.2538C15.7971 5.6642 15.4542 6.70761 15.3499 6.96769C15.9916 7.68316 16.3766 8.5991 16.3766 9.71755C16.3766 13.6578 14.0405 14.5234 11.8127 14.7773C12.1686 15.0939 12.4895 15.7189 12.4895 16.675C12.4895 18.0463 12.4774 19.1524 12.4774 19.4886C12.4774 19.763 12.6559 20.0817 13.1662 19.981C17.1386 18.622 20 14.7814 20 10.2531C20 4.58996 15.5234 0 10 0Z" fill="#7892E8"/>
</svg>