<svg width="20" height="15" viewBox="0 0 20 15" fill="none" xmlns="http://www.w3.org/2000/svg">
<path d="M19.5931 2.35834C19.4793 1.90595 19.2569 1.49337 18.948 1.16169C18.639 0.830007 18.2544 0.59078 17.8324 0.467821C16.2675 0.00750148 10.0069 8.13214e-06 10.0069 8.13214e-06C10.0069 8.13214e-06 3.74735 -0.00748566 2.18146 0.432494C1.75968 0.561112 1.37585 0.803722 1.06681 1.13703C0.757775 1.47034 0.533909 1.88316 0.416707 2.33586C0.00399882 4.01228 1.46411e-06 7.4893 1.46411e-06 7.4893C1.46411e-06 7.4893 -0.00399569 10.9834 0.405714 12.6427C0.635552 13.5602 1.31008 14.2849 2.16747 14.5322C3.74835 14.9925 9.99193 15 9.99193 15C9.99193 15 16.2525 15.0075 17.8174 14.5686C18.2396 14.4458 18.6246 14.2072 18.9343 13.8762C19.2439 13.5451 19.4676 13.1333 19.5831 12.6813C19.9969 11.0059 19.9999 7.52998 19.9999 7.52998C19.9999 7.52998 20.0198 4.03476 19.5931 2.35834ZM8.00434 10.7105L8.00934 4.2874L13.2127 7.50428L8.00434 10.7105Z" fill="#7892E8"/>
</svg>