<?xml version="1.0" encoding="UTF-8"?>
<svg width="18px" height="18px" viewBox="0 0 18 18" version="1.1" xmlns="http://www.w3.org/2000/svg" xmlns:xlink="http://www.w3.org/1999/xlink">
    <title>icon/parametr changing</title>
    <g id="icon/parametr-changing" stroke="none" stroke-width="1" fill="none" fill-rule="evenodd">
        <g fill-rule="nonzero">
            <rect id="Rectangle" fill-opacity="0" fill="#FFFFFF" x="0" y="0" width="18" height="18"></rect>
            <path d="M11.8098915,8.53713845 C12.0655137,8.28155991 12.4799725,8.28155991 12.7355511,8.53713845 L12.7355511,8.53713845 L16.0082833,11.8098703 C16.2639056,12.0654924 16.2639056,12.4799512 16.0082833,12.7355297 L16.0082833,12.7355297 L12.7355511,16.0082616 C12.6077836,16.1360726 12.4402634,16.2 12.2727431,16.2 C12.1052229,16.2 11.9377026,16.1360726 11.8099352,16.0083052 C11.554313,15.752683 11.554313,15.3382243 11.8099352,15.0826457 L11.8099352,15.0826457 L13.9652693,12.9272682 L2.45454645,12.9272682 C2.09306226,12.9272682 1.8,12.634206 1.8,12.2727218 C1.8,11.9112377 2.09306226,11.6181755 2.45454645,11.6181755 L2.45454645,11.6181755 L13.9652693,11.6181755 L11.8098915,9.46279792 C11.5542693,9.20717574 11.5542693,8.79271698 11.8098915,8.53713845 Z M5.26443839,1.99171583 C5.52005982,1.73609472 5.93451737,1.73609472 6.19009517,1.99171583 C6.4457166,2.24733694 6.4457166,2.66179397 6.19009517,2.91737144 L6.19009517,2.91737144 L4.03476752,5.07274 L15.5454555,5.07274 C15.9069386,5.07274 16.2,5.365801 16.2,5.72728364 C16.2,6.08876627 15.9069386,6.38182727 15.5454555,6.38182727 L15.5454555,6.38182727 L4.03476752,6.38182727 L6.19009517,8.53715219 C6.4457166,8.7927733 6.4457166,9.20723033 6.19009517,9.46280781 C6.06232809,9.59061836 5.89480834,9.65454545 5.7272886,9.65454545 C5.55976885,9.65454545 5.3922491,9.59061836 5.26443839,9.46280781 L5.26443839,9.46280781 L1.99171607,6.19008962 C1.73609464,5.93446852 1.73609464,5.52001148 1.99171607,5.26443401 L1.99171607,5.26443401 Z" id="Combined-Shape" fill="#8A92A3"></path>
        </g>
    </g>
</svg>