<?xml version="1.0" encoding="UTF-8"?>
<svg width="24px" height="24px" viewBox="0 0 24 24" version="1.1" xmlns="http://www.w3.org/2000/svg" xmlns:xlink="http://www.w3.org/1999/xlink">
    <title>icon/stakepool_retired</title>
    <g id="icon/stakepool_retired" stroke="none" stroke-width="1" fill="none" fill-rule="evenodd">
        <g fill-rule="nonzero">
            <rect id="Rectangle" fill-opacity="0" fill="#FFFFFF" x="0" y="0" width="24" height="24"></rect>
            <path d="M18.0476404,2.5437949 C18.8369993,2.5437949 19.2595276,2.79718193 19.259496,3.41411058 L19.2605251,3.52477422 L19.2544273,3.70914417 C19.2505924,3.76218201 19.2449618,3.80666369 19.2375557,3.84217706 C19.168155,6.52132306 17.2176453,9.20504445 13.6791977,11.6305463 L13.413,11.809 L13.6857812,11.9934381 C17.0663652,14.3161667 18.9877561,16.8598997 19.2105162,19.4136865 L19.2271213,19.6690908 L19.2323489,19.9245154 C19.2323487,20.1215024 19.1617286,20.3067013 19.0469554,20.440378 L18.9730049,20.5140835 C18.8067278,20.7083589 18.5505669,20.8150876 18.202463,20.8387343 L18.0476404,20.8437949 L6.02420484,20.8437949 C5.38926886,20.8437949 5.07367338,20.6536294 4.98804707,20.2014798 C4.95603888,20.1137214 4.93947368,20.0203936 4.93947368,19.9248833 C4.93947368,17.1991379 6.89261819,14.4648669 10.4969505,11.9928559 L10.768,11.809 L10.4976079,11.6266215 C7.12480869,9.31302191 5.19406025,6.75941979 4.96589169,4.20499559 L4.94875975,3.94955929 L4.94397117,3.65452074 L4.95031253,3.59625911 L4.9501789,3.55009441 C4.9493975,3.18334825 4.9704365,3.01396606 5.07796859,2.86965217 C5.22529143,2.67193693 5.48044268,2.57073889 5.85589498,2.54852868 L6.02420484,2.5437949 L18.0476404,2.5437949 Z M12.073,12.849 L11.7769133,13.039449 C8.76852402,14.995421 6.97220405,17.0786994 6.58595035,19.1019838 L6.576,19.155 L17.594,19.155 L17.585723,19.1017363 C17.1989194,17.0756518 15.4038124,14.9796219 12.5022842,13.0716884 L12.1753544,12.860483 L12.073,12.849 Z M17.6300753,4.29259684 L17.637,4.231 L6.545,4.231 L6.55268757,4.29282037 C6.8465646,6.38897311 8.66791323,8.5749621 11.6767247,10.5481089 L12.0627908,10.7964018 C15.3919713,8.70481297 17.3274197,6.46010233 17.6300753,4.29259684 Z" id="Combined-Shape" fill="#8A92A3"></path>
            <path d="M12.30923,15 C13.9299785,15 15.3041651,15.9955887 16.4303758,17.9703178 C16.4486456,18.0023524 16.4581778,18.0378709 16.4581778,18.0739115 C16.4581778,18.1987767 16.3461913,18.3 16.2080474,18.3 L8.25023255,18.2998836 C8.20706265,18.2998836 8.16462571,18.2897861 8.12704966,18.270573 C8.0067824,18.2090788 7.96443809,18.0711026 8.03247102,17.9623944 C9.26558808,15.9924411 10.6912252,15 12.30923,15 Z" id="Path-13" fill="#8A92A3"></path>
        </g>
    </g>
</svg>