<?xml version="1.0" encoding="UTF-8"?>
<svg width="24px" height="24px" viewBox="0 0 24 24" version="1.1" xmlns="http://www.w3.org/2000/svg" xmlns:xlink="http://www.w3.org/1999/xlink">
    <title>icon/stakepool_new</title>
    <g id="icon/stakepool_new" stroke="none" stroke-width="1" fill="none" fill-rule="evenodd">
        <rect id="Rectangle" x="0" y="0" width="24" height="24"></rect>
        <g id="Group-3" transform="translate(2.500000, 2.000000)" fill="#8A92A3" fill-rule="nonzero">
            <path d="M9.49996133,0 C9.93171864,0 10.3636306,0.164413146 10.7000177,0.4931613 L10.7000177,0.4931613 L11.9086597,1.67409217 L11.9922146,1.74212272 C12.1102181,1.82147103 12.252681,1.85473959 12.3964558,1.83420846 L12.3964558,1.83420846 L14.0614905,1.59631917 L14.1857599,1.58303799 L14.3088111,1.57866302 C15.1360108,1.57874114 15.856006,2.1734253 16.0032768,3.02123304 L16.0032768,3.02123304 L16.2937964,4.6941924 L16.3217962,4.79883587 C16.3710997,4.93309262 16.4670795,5.04460449 16.5952608,5.11329161 L16.5952608,5.11329161 L18.0807318,5.90938088 L18.2139032,5.98839545 C18.9417783,6.4646037 19.2107989,7.4125148 18.8224231,8.21499294 L18.8224231,8.21499294 L18.0839031,9.74096093 L18.0456622,9.8422488 C18.0074213,9.98014553 18.0201682,10.1273572 18.0839031,10.259044 L18.0839031,10.259044 L18.8224231,11.785012 L18.8841702,11.9280033 C19.1958597,12.7454192 18.8618664,13.6719718 18.0807318,14.090624 L18.0807318,14.090624 L16.5952995,14.8866352 L16.5054086,14.9458851 C16.3942129,15.0347484 16.3188572,15.1613914 16.2937964,15.3057344 L16.2937964,15.3057344 L16.0032768,16.9787328 L15.9720782,17.1232073 C15.7514939,17.9740145 14.939573,18.5289893 14.0615291,18.4036857 L14.0615291,18.4036857 L12.3964944,18.1657964 L12.2893156,18.1603012 C12.1476732,18.1661386 12.0130256,18.2239758 11.9086984,18.3259127 L11.9086984,18.3259127 L10.7000951,19.5068045 L10.5775329,19.6160271 C9.90441274,20.1621382 8.93325199,20.1256981 8.29994362,19.5068045 L8.29994362,19.5068045 L7.0913016,18.3258737 L7.00773932,18.2578431 C6.88971843,18.1784948 6.74721841,18.1452262 6.60350557,18.1657574 L6.60350557,18.1657574 L4.93847085,18.4036467 L4.792838,18.4182807 C3.9237914,18.4690922 3.1499824,17.8611477 2.99672317,16.9786937 L2.99672317,16.9786937 L2.70620356,15.3057344 L2.67820384,15.2010909 C2.62890028,15.0668341 2.53292052,14.9553223 2.40473919,14.8866352 L2.40473919,14.8866352 L0.919268179,14.0905459 L0.786096833,14.0115313 C0.0582216537,13.5353231 -0.210798874,12.587412 0.177576875,11.7849338 L0.177576875,11.7849338 L0.916096906,10.259044 L0.954337826,10.1577561 C0.992578745,10.0198594 0.979831772,9.87264769 0.916096906,9.74096093 L0.916096906,9.74096093 L0.177576875,8.21499294 L0.115829837,8.07200157 C-0.195859702,7.25458564 0.138133621,6.32803305 0.919268179,5.90938088 L0.919268179,5.90938088 L2.40470051,5.11336973 L2.49459143,5.05411975 C2.60578711,4.9652565 2.68114276,4.83861346 2.70620356,4.69427052 L2.70620356,4.69427052 L2.99672317,3.0212721 L3.02792152,2.87679886 C3.24850229,2.02600599 4.06039035,1.47116362 4.93847085,1.59631917 L4.93847085,1.59631917 L6.60350557,1.83420846 L6.71073267,1.83965499 C6.85241342,1.83377877 6.98700537,1.77599785 7.0913016,1.67409217 L7.0913016,1.67409217 L8.29990495,0.493200362 L8.4303822,0.377587837 C8.74436911,0.125819001 9.122106,0 9.49996133,0 Z M9.49996133,1.5 C9.44596173,1.5 9.39467743,1.52066587 9.34825915,1.56602536 L9.34825915,1.56602536 L8.13959056,2.74698092 L8.00892182,2.86439429 C7.55938247,3.23551752 6.97462383,3.40254805 6.39113934,3.31909922 L6.39113934,3.31909922 L4.72631506,3.08124001 L4.66724444,3.08041219 C4.57181828,3.09173923 4.49419773,3.16509644 4.47460223,3.27793039 L4.47460223,3.27793039 L4.18408626,4.95090789 L4.14713238,5.12153054 C4.00111574,5.68224407 3.62943551,6.15881153 3.11329876,6.43544708 L3.11329876,6.43544708 L1.62776892,7.23151049 L1.57565882,7.26878712 C1.49925429,7.34034033 1.47644717,7.45550653 1.52777537,7.5615681 L1.52777537,7.5615681 L2.26628429,9.08751313 L2.3417283,9.2633164 C2.54291226,9.79797884 2.51776329,10.3928946 2.2662736,10.9125138 L2.2662736,10.9125138 L1.52775114,12.4384087 L1.50568528,12.5027094 C1.48318627,12.6102877 1.53070625,12.7164067 1.62772374,12.7683921 L1.62772374,12.7683921 L3.11327962,13.5645268 L3.26371177,13.6533884 C3.75016489,13.9688253 4.08403682,14.4727164 4.18410364,15.0491971 L4.18410364,15.0491971 L4.47460486,16.7220505 L4.49300547,16.7848114 C4.53421864,16.8809272 4.62548724,16.9331025 4.72673173,16.9186663 L4.72673173,16.9186663 L6.39134977,16.6808365 L6.56624203,16.6632998 C7.14843994,16.6295651 7.71832609,16.8414982 8.13943574,17.2528337 L8.13943574,17.2528337 L9.34823315,18.4339163 L9.39575748,18.4706192 C9.47854521,18.5195575 9.57667525,18.5073325 9.65174396,18.4339765 L9.65174396,18.4339765 L10.8604094,17.253024 L10.9911318,17.1355642 C11.440875,16.7642863 12.0260797,16.597123 12.6099444,16.6810611 L12.6099444,16.6810611 L14.2736849,16.9187649 L14.3327583,16.9196024 C14.4281866,16.908289 14.5057983,16.8349315 14.5253978,16.7220745 L14.5253978,16.7220745 L14.8159137,15.049097 L14.8528676,14.8784743 C14.9988843,14.3177608 15.3705645,13.8411934 15.8867012,13.5645578 L15.8867012,13.5645578 L17.3722311,12.7684944 L17.4243412,12.7312178 C17.5007457,12.6596646 17.5235528,12.5444984 17.4722246,12.4384368 L17.4722246,12.4384368 L16.7337157,10.9124918 L16.6582717,10.7366885 C16.4570877,10.202026 16.4822367,9.60711028 16.7337264,9.08749105 L16.7337264,9.08749105 L17.4722357,7.56154514 L17.4943071,7.49723306 C17.5168137,7.38963911 17.4692938,7.28352002 17.3722763,7.2315347 L17.3722763,7.2315347 L15.8867204,6.43539994 L15.7362882,6.34653836 C15.2498351,6.03110147 14.9159632,5.52721034 14.8158964,4.95072962 L14.8158964,4.95072962 L14.5253951,3.27787622 L14.5047215,3.21010553 C14.4672158,3.12774019 14.3923308,3.07867091 14.3086695,3.07866301 L14.3086695,3.07866301 L12.6086116,3.3191293 L12.4336916,3.33666082 C11.8514189,3.37038087 11.2816261,3.15845869 10.8605256,2.74713216 L10.8605256,2.74713216 L9.65172817,1.56604949 L9.60376112,1.52878969 C9.57077681,1.50921947 9.53591227,1.5 9.49996133,1.5 Z M13.5163251,7.45602536 C13.7894423,7.71526033 13.8245018,8.1311514 13.6143753,8.4303422 L13.5439746,8.51632508 L9.74728974,12.5163251 C9.50221273,12.7745261 9.1145806,12.8214843 8.81806654,12.643597 L8.7229238,12.575955 L6.51960871,10.7382189 C6.20151752,10.4729061 6.15873218,9.99996375 6.42404496,9.68187256 C6.6652384,9.39269876 7.07802654,9.33105044 7.3900722,9.52156495 L7.48039129,9.58630882 L9.143,10.973 L12.4560254,7.48367492 C12.7411838,7.18324602 13.2158962,7.17086689 13.5163251,7.45602536 Z" id="Combined-Shape"></path>
        </g>
    </g>
</svg>