<?xml version="1.0" encoding="UTF-8"?>
<svg width="20px" height="20px" viewBox="0 0 20 20" version="1.1" xmlns="http://www.w3.org/2000/svg" xmlns:xlink="http://www.w3.org/1999/xlink">
    <title>icon/stakepool_saturated</title>
    <g id="icon/stakepool_saturated" stroke="none" stroke-width="1" fill="none" fill-rule="evenodd">
        <g id="icon/stakepool_oversaturaed-copy-2" fill-rule="nonzero">
            <rect id="Rectangle" fill-opacity="0" fill="#FFFFFF" x="0" y="0" width="20" height="20"></rect>
            <path d="M13.8431877,2 C15.3105046,2 16.5,3.16460899 16.5,4.60122699 L16.5,4.60122699 L16.5,15.398773 C16.5,16.835391 15.3105046,18 13.8431877,18 L13.8431877,18 L6.15681234,18 C4.6894954,18 3.5,16.835391 3.5,15.398773 L3.5,15.398773 L3.5,4.60122699 C3.5,3.16460899 4.6894954,2 6.15681234,2 L6.15681234,2 Z M13.8431877,3.27607362 L6.15681234,3.27607362 C5.40931126,3.27607362 4.8033419,3.86936499 4.8033419,4.60122699 L4.8033419,4.60122699 L4.8033419,15.398773 C4.8033419,16.130635 5.40931126,16.7239264 6.15681234,16.7239264 L6.15681234,16.7239264 L13.8431877,16.7239264 C14.5906887,16.7239264 15.1966581,16.130635 15.1966581,15.398773 L15.1966581,15.398773 L15.1966581,4.60122699 C15.1966581,3.86936499 14.5906887,3.27607362 13.8431877,3.27607362 L13.8431877,3.27607362 Z M12.3333333,11 C12.8856181,11 13.3333333,11.4477153 13.3333333,12 L13.3333333,13.5 C13.3333333,14.0522847 12.8856181,14.5 12.3333333,14.5 L7.66666667,14.5 C7.11438192,14.5 6.66666667,14.0522847 6.66666667,13.5 L6.66666667,12 C6.66666667,11.4477153 7.11438192,11 7.66666667,11 L12.3333333,11 Z M12.3333333,5.5 C12.8856181,5.5 13.3333333,5.94771525 13.3333333,6.5 L13.3333333,8 C13.3333333,8.55228475 12.8856181,9 12.3333333,9 L7.66666667,9 C7.11438192,9 6.66666667,8.55228475 6.66666667,8 L6.66666667,6.5 C6.66666667,5.94771525 7.11438192,5.5 7.66666667,5.5 L12.3333333,5.5 Z" id="Combined-Shape" fill="#8A92A3"></path>
        </g>
    </g>
</svg>