<svg width="280" height="280" viewBox="0 0 280 280" fill="none" xmlns="http://www.w3.org/2000/svg">
<g clip-path="url(#clip0_6871_197366)">
<g opacity="0.2">
<path d="M105.691 262.428L280 167.352" stroke="#3154CB" stroke-width="0.5"/>
<path d="M39.4531 215.056L202.056 126.366" stroke="#3154CB" stroke-width="0.5"/>
<path d="M95.5791 115L279.201 215.027" stroke="#3154CB" stroke-width="0.5"/>
<path d="M16 180.15L169.923 264" stroke="#3154CB" stroke-width="0.5"/>
</g>
<path d="M243.997 160.114L243.921 148.63L229.979 145.809L156.734 103.437C145.805 97.1135 126.69 97.8704 114.037 105.13L46.4605 143.896C45.902 144.212 45.3779 144.542 44.8677 144.873L36 147.598V158.036C36.0827 161.958 38.5031 165.687 43.3575 168.501L123.256 214.712C134.186 221.036 153.3 220.279 165.953 213.026L233.53 174.26C240.563 170.221 244.108 165.033 243.997 160.127V160.114Z" fill="url(#paint0_linear_6871_197366)"/>
<path opacity="0.7" d="M123.27 204.26L43.3712 158.042C32.4417 151.726 33.8346 140.716 46.481 133.457L114.057 94.6911C126.711 87.4319 145.825 86.6751 156.755 92.9985L236.653 139.21C247.562 145.533 246.169 156.542 233.495 163.801L165.919 202.567C153.314 209.827 134.199 210.583 123.27 204.26Z" fill="#52FCFF"/>
<path d="M185.758 151.781V59.9296L93.6952 58.1475V149.2C93.3642 150.219 93.7918 151.265 95.0261 151.953L136.792 176.599C138.958 177.872 142.757 177.755 145.288 176.338L183.661 154.76C185.172 153.934 185.916 152.813 185.758 151.781Z" fill="url(#paint1_linear_6871_197366)"/>
<path opacity="0.7" d="M136.799 84.253L95.0328 59.6131C92.8745 58.3333 93.1641 56.1727 95.7224 54.7277L134.075 33.1497C136.599 31.7254 140.406 31.6085 142.564 32.8883L184.33 57.5282C186.488 58.808 186.192 60.9686 183.641 62.4135L145.288 83.9915C142.764 85.4158 138.957 85.5328 136.799 84.253Z" fill="#52FCFF"/>
<path d="M129.586 142.581C129.587 141.704 129.38 140.839 128.98 140.058C128.581 139.277 128.002 138.602 127.29 138.088L96.2119 119.778C95.99 119.617 95.7289 119.519 95.456 119.494C95.183 119.468 94.9083 119.517 94.6604 119.633C94.597 119.661 94.5369 119.696 94.4811 119.737L86.7512 124.326L120.65 149.2L128.469 144.542C128.649 144.487 128.814 144.393 128.952 144.266C129.167 144.043 129.335 143.779 129.444 143.489C129.553 143.199 129.601 142.89 129.586 142.581Z" fill="url(#paint2_linear_6871_197366)"/>
<path d="M119.243 148.973L88.1715 130.671C87.4576 130.159 86.8768 129.484 86.4774 128.702C86.0779 127.92 85.8715 127.055 85.8753 126.178C85.8753 124.464 86.9993 123.701 88.3094 124.471L119.381 142.781C120.096 143.294 120.677 143.97 121.077 144.753C121.476 145.535 121.682 146.402 121.677 147.281C121.642 148.973 120.553 149.758 119.243 148.973Z" fill="url(#paint3_linear_6871_197366)"/>
<path d="M129.538 128.909C129.542 128.032 129.336 127.167 128.936 126.385C128.537 125.603 127.956 124.928 127.242 124.416L96.1707 106.1C95.9472 105.943 95.6864 105.847 95.4142 105.821C95.142 105.796 94.8679 105.842 94.6192 105.955L94.433 106.065L86.71 110.655L120.608 135.529L128.428 130.87C128.605 130.816 128.768 130.722 128.904 130.595C129.12 130.373 129.288 130.109 129.397 129.818C129.507 129.528 129.554 129.219 129.538 128.909Z" fill="url(#paint4_linear_6871_197366)"/>
<path d="M119.202 135.315L88.1234 116.999C87.4116 116.485 86.8322 115.809 86.433 115.028C86.0338 114.247 85.8262 113.383 85.8272 112.506C85.8685 110.792 86.958 110.029 88.2613 110.799L119.34 129.109C120.051 129.623 120.631 130.298 121.03 131.08C121.429 131.861 121.637 132.725 121.636 133.602C121.594 135.315 120.505 136.086 119.202 135.315Z" fill="url(#paint5_linear_6871_197366)"/>
<path d="M129.628 115.258C129.625 114.382 129.413 113.519 129.009 112.741C128.604 111.963 128.02 111.293 127.304 110.785L96.2739 92.4689C96.0505 92.3118 95.7897 92.2157 95.5175 92.1904C95.2453 92.165 94.9712 92.2112 94.7224 92.3244C94.6574 92.356 94.5952 92.3928 94.5362 92.4345L86.8132 97.0171L120.712 121.898L128.531 117.24C128.709 117.182 128.872 117.086 129.007 116.957C129.223 116.733 129.39 116.466 129.497 116.173C129.604 115.88 129.648 115.569 129.628 115.258Z" fill="url(#paint6_linear_6871_197366)"/>
<path d="M119.291 121.678L88.2131 103.368C87.5037 102.851 86.9271 102.174 86.5304 101.392C86.1336 100.609 85.9282 99.7446 85.9307 98.868C85.9721 97.1547 87.0616 96.391 88.3648 97.1616L119.443 115.478C120.157 115.99 120.738 116.665 121.137 117.447C121.537 118.228 121.743 119.094 121.739 119.971C121.684 121.685 120.595 122.448 119.291 121.678Z" fill="url(#paint7_linear_6871_197366)"/>
<path d="M129.628 101.64C129.628 100.761 129.418 99.8935 129.013 99.1117C128.609 98.33 128.023 97.6563 127.304 97.1471L96.2739 78.8375C96.0517 78.6779 95.7911 78.5798 95.5186 78.5532C95.2461 78.5267 94.9714 78.5725 94.7224 78.6861L94.5362 78.7962L86.8132 83.3857L120.712 108.26L128.531 103.601C128.709 103.546 128.871 103.452 129.007 103.326C129.221 103.103 129.386 102.838 129.493 102.548C129.6 102.258 129.646 101.949 129.628 101.64Z" fill="url(#paint8_linear_6871_197366)"/>
<path d="M119.291 108.047L88.2131 89.7303C87.5038 89.2147 86.9272 88.5387 86.5304 87.7576C86.1337 86.9766 85.9281 86.1128 85.9307 85.2372C85.9721 83.5239 87.0616 82.7601 88.3648 83.5308L119.443 101.84C120.155 102.355 120.734 103.03 121.133 103.811C121.533 104.592 121.74 105.457 121.739 106.334C121.684 108.047 120.595 108.817 119.291 108.047Z" fill="url(#paint9_linear_6871_197366)"/>
<path d="M179.165 85.0167L150.045 101.792V97.2782L179.165 80.4961V85.0167Z" fill="url(#paint10_linear_6871_197366)"/>
<path d="M179.165 93.6935L170.236 98.8402V94.3265L179.165 89.1797V93.6935Z" fill="url(#paint11_linear_6871_197366)"/>
<path d="M166.843 100.794L150.045 110.475V105.955L166.843 96.2803V100.794Z" fill="url(#paint12_linear_6871_197366)"/>
<path d="M179.165 102.046L158.444 114.012V109.498L179.165 97.5254V102.046Z" fill="url(#paint13_linear_6871_197366)"/>
<path d="M155.045 115.966L150.045 118.821V114.308L155.045 111.452V115.966Z" fill="url(#paint14_linear_6871_197366)"/>
<path d="M179.165 110.772L150.045 127.547V123.033L179.165 106.258V110.772Z" fill="url(#paint15_linear_6871_197366)"/>
<path d="M179.165 119.483L170.236 124.629V120.116L179.165 114.969V119.483Z" fill="url(#paint16_linear_6871_197366)"/>
<path d="M166.843 126.583L150.045 136.264V131.744L166.843 122.069V126.583Z" fill="url(#paint17_linear_6871_197366)"/>
<path d="M179.165 127.835L158.444 139.801V135.287L179.165 123.314V127.835Z" fill="url(#paint18_linear_6871_197366)"/>
<path d="M155.045 141.755L150.045 144.61V140.09L155.045 137.241V141.755Z" fill="url(#paint19_linear_6871_197366)"/>
<path d="M179.165 140.159L150.045 156.935V148.361L179.165 131.586V140.159Z" fill="url(#paint20_linear_6871_197366)"/>
<path d="M179.165 140.159L172.173 135.611L179.165 131.586V140.159Z" fill="url(#paint21_linear_6871_197366)"/>
<path d="M171.566 169.237C173.583 170.783 175.114 172.872 175.979 175.258C177.559 179.386 182.916 183.515 182.916 183.515L204.293 196.313L231.702 180.253L210.326 167.448C210.326 167.448 204.982 163.32 203.431 159.233C202.566 156.852 201.037 154.768 199.024 153.226L177.793 140.896L150.397 156.941L171.566 169.237Z" fill="url(#paint22_linear_6871_197366)"/>
<path d="M115.17 52.0225L166.249 52.4422V59.4576C166.249 63.2 163.75 66.9354 158.765 69.7885C148.789 75.4804 132.622 75.4804 122.646 69.7885C117.662 66.9425 115.17 63.2 115.17 59.4576V52.0225Z" fill="url(#paint23_linear_6871_197366)"/>
<path d="M158.767 62.7954C148.791 68.4629 132.625 68.4629 122.649 62.7954C112.673 57.1279 112.68 47.9182 122.649 42.2506C132.618 36.5831 148.791 36.5831 158.767 42.2506C168.743 47.9182 168.743 57.1137 158.767 62.7954Z" fill="url(#paint24_linear_6871_197366)"/>
<path d="M140.209 65.0433C152.378 65.0433 162.243 59.2137 162.243 52.0226C162.243 44.8315 152.378 39.002 140.209 39.002C128.04 39.002 118.175 44.8315 118.175 52.0226C118.175 59.2137 128.04 65.0433 140.209 65.0433Z" fill="url(#paint25_linear_6871_197366)"/>
<path fill-rule="evenodd" clip-rule="evenodd" d="M150.081 47.5071C149.618 47.2395 148.877 47.293 148.413 47.5606L145.911 49.0052L143.502 48.4166L145.077 47.5071C145.541 47.2395 145.633 46.8115 145.17 46.544C144.707 46.2765 143.965 46.2765 143.502 46.544L141.232 47.8548L131.317 45.4472C130.854 45.3401 130.391 45.3937 130.02 45.6077C129.696 45.7949 129.603 46.116 129.742 46.3567L134.004 51.9746L131.78 53.2587C131.317 53.5263 131.224 53.9543 131.688 54.2218C132.151 54.4893 132.892 54.4893 133.356 54.2218L134.977 53.2855L135.997 54.6766L133.541 56.0945C133.078 56.362 132.985 56.79 133.448 57.0575C133.912 57.325 134.653 57.325 135.116 57.0575L137.016 55.9607L140.583 60.5888C140.815 60.9366 141.51 61.0703 142.112 60.9366C142.251 60.9098 142.344 60.8563 142.437 60.8028C142.761 60.6155 142.9 60.3213 142.715 60.0537L138.869 54.9976L146.375 50.6638L155.27 52.8575C155.733 52.9645 156.197 52.911 156.567 52.6969C156.66 52.6434 156.753 52.5899 156.845 52.4829C157.077 52.1352 156.845 51.7339 156.243 51.6001L148.182 49.6205L150.081 48.5236C150.544 48.2026 150.591 47.7478 150.081 47.5071ZM133.124 47.3467L139.378 48.8716L135.811 50.9315L133.124 47.3467ZM136.877 52.2423L137.896 53.6334L144.104 50.0486L141.695 49.4601L136.877 52.2423Z" fill="white"/>
<path d="M148.413 47.5606L148.283 47.4856L148.413 47.5606ZM150.081 47.5071L149.951 47.5821L149.958 47.5858L149.965 47.5892L150.081 47.5071ZM145.911 49.0052L145.84 49.1029L145.954 49.1307L146.041 49.0802L145.911 49.0052ZM143.502 48.4166L143.372 48.3416L143.179 48.453L143.431 48.5143L143.502 48.4166ZM145.077 47.5071L144.947 47.4321L145.077 47.5071ZM141.232 47.8548L141.161 47.9526L141.275 47.9803L141.362 47.9298L141.232 47.8548ZM131.317 45.4472L131.388 45.3494L131.385 45.3487L131.317 45.4472ZM129.742 46.3567L129.567 46.3904L129.574 46.3993L129.742 46.3567ZM134.004 51.9746L134.134 52.0497L134.223 51.9984L134.173 51.9321L134.004 51.9746ZM131.78 53.2587L131.651 53.1837L131.78 53.2587ZM134.977 53.2855L135.146 53.2442L135.04 53.0991L134.847 53.2105L134.977 53.2855ZM135.997 54.6766L136.126 54.7516L136.214 54.7011L136.166 54.6353L135.997 54.6766ZM133.541 56.0945L133.671 56.1695L133.541 56.0945ZM135.116 57.0575L135.246 57.1325L135.116 57.0575ZM137.016 55.9607L137.184 55.9176L137.075 55.7765L136.886 55.8857L137.016 55.9607ZM140.583 60.5888L140.755 60.5507L140.751 60.5457L140.583 60.5888ZM142.112 60.9366L142.054 60.8358L142.046 60.8376L142.112 60.9366ZM142.715 60.0537L142.885 60.0143L142.883 60.0111L142.715 60.0537ZM138.869 54.9976L138.739 54.9226L138.65 54.9739L138.701 55.0403L138.869 54.9976ZM146.375 50.6638L146.447 50.5662L146.333 50.5381L146.245 50.5888L146.375 50.6638ZM155.27 52.8575L155.198 52.955L155.202 52.9559L155.27 52.8575ZM156.845 52.4829L157.01 52.5304L157.014 52.5258L157.017 52.521L156.845 52.4829ZM156.243 51.6001L156.171 51.6978L156.177 51.6991L156.243 51.6001ZM148.182 49.6205L148.052 49.5455L147.859 49.6566L148.11 49.7181L148.182 49.6205ZM150.081 48.5236L150.212 48.599L150.222 48.5915L150.081 48.5236ZM139.378 48.8716L139.508 48.9466L139.701 48.8351L139.45 48.7738L139.378 48.8716ZM133.124 47.3467L133.195 47.249L132.773 47.1461L132.955 47.3888L133.124 47.3467ZM135.811 50.9315L135.642 50.9736L135.75 51.1168L135.941 51.0065L135.811 50.9315ZM137.896 53.6334L137.727 53.6747L137.833 53.8197L138.026 53.7084L137.896 53.6334ZM136.877 52.2423L136.747 52.1673L136.659 52.2178L136.707 52.2836L136.877 52.2423ZM144.104 50.0486L144.234 50.1236L144.427 50.0123L144.176 49.9509L144.104 50.0486ZM141.695 49.4601L141.767 49.3624L141.653 49.3345L141.565 49.3851L141.695 49.4601ZM148.543 47.6356C148.954 47.3982 149.578 47.3664 149.951 47.5821L150.211 47.4321C149.658 47.1127 148.799 47.1879 148.283 47.4856L148.543 47.6356ZM146.041 49.0802L148.543 47.6356L148.283 47.4856L145.781 48.9302L146.041 49.0802ZM143.431 48.5143L145.84 49.1029L145.983 48.9075L143.574 48.3189L143.431 48.5143ZM144.947 47.4321L143.372 48.3416L143.632 48.4916L145.207 47.5821L144.947 47.4321ZM145.04 46.619C145.414 46.8347 145.359 47.1947 144.947 47.4321L145.207 47.5821C145.723 47.2844 145.853 46.7884 145.3 46.469L145.04 46.619ZM143.632 46.619C144.024 46.3929 144.649 46.3929 145.04 46.619L145.3 46.469C144.765 46.16 143.907 46.16 143.372 46.469L143.632 46.619ZM141.362 47.9298L143.632 46.619L143.372 46.469L141.102 47.7798L141.362 47.9298ZM131.246 45.5449L141.161 47.9526L141.303 47.7571L131.388 45.3494L131.246 45.5449ZM130.15 45.6827C130.47 45.4981 130.855 45.4547 131.249 45.5456L131.385 45.3487C130.852 45.2256 130.312 45.2893 129.89 45.5327L130.15 45.6827ZM129.916 46.3232C129.796 46.1149 129.881 45.8376 130.15 45.6827L129.89 45.5327C129.51 45.7523 129.41 46.117 129.568 46.3903L129.916 46.3232ZM134.173 51.9321L129.91 46.3142L129.574 46.3993L133.836 52.0172L134.173 51.9321ZM131.91 53.3337L134.134 52.0497L133.874 51.8996L131.651 53.1837L131.91 53.3337ZM131.818 54.1468C131.444 53.9311 131.499 53.5711 131.91 53.3337L131.651 53.1837C131.135 53.4814 131.005 53.9774 131.558 54.2968L131.818 54.1468ZM133.226 54.1468C132.834 54.3729 132.209 54.3729 131.818 54.1468L131.558 54.2968C132.093 54.6058 132.951 54.6058 133.486 54.2968L133.226 54.1468ZM134.847 53.2105L133.226 54.1468L133.486 54.2968L135.107 53.3605L134.847 53.2105ZM136.166 54.6353L135.146 53.2442L134.808 53.3268L135.827 54.7179L136.166 54.6353ZM133.671 56.1695L136.126 54.7516L135.867 54.6016L133.411 56.0194L133.671 56.1695ZM133.578 56.9825C133.205 56.7669 133.26 56.4068 133.671 56.1695L133.411 56.0194C132.896 56.3171 132.765 56.8132 133.318 57.1325L133.578 56.9825ZM134.986 56.9825C134.595 57.2086 133.97 57.2086 133.578 56.9825L133.318 57.1325C133.854 57.4415 134.711 57.4415 135.246 57.1325L134.986 56.9825ZM136.886 55.8857L134.986 56.9825L135.246 57.1325L137.146 56.0357L136.886 55.8857ZM140.751 60.5457L137.184 55.9176L136.848 56.0038L140.415 60.6319L140.751 60.5457ZM142.046 60.8376C141.519 60.9547 140.943 60.833 140.755 60.5507L140.412 60.6269C140.687 61.0401 141.501 61.186 142.178 61.0356L142.046 60.8376ZM142.307 60.7278C142.211 60.7832 142.146 60.8182 142.054 60.8359L142.17 61.0372C142.356 61.0014 142.477 60.9294 142.566 60.8778L142.307 60.7278ZM142.544 60.0931C142.699 60.3175 142.584 60.5676 142.307 60.7278L142.566 60.8778C142.938 60.6635 143.1 60.325 142.885 60.0144L142.544 60.0931ZM138.701 55.0403L142.546 60.0964L142.883 60.0111L139.037 54.955L138.701 55.0403ZM146.245 50.5888L138.739 54.9226L138.999 55.0726L146.505 50.7388L146.245 50.5888ZM155.342 52.7599L146.447 50.5662L146.302 50.7613L155.198 52.955L155.342 52.7599ZM156.438 52.6219C156.118 52.8066 155.732 52.8499 155.338 52.759L155.202 52.9559C155.735 53.079 156.276 53.0154 156.697 52.772L156.438 52.6219ZM156.681 52.4355C156.602 52.5269 156.526 52.5706 156.438 52.6219L156.697 52.772C156.794 52.7163 156.904 52.653 157.01 52.5304L156.681 52.4355ZM156.177 51.6991C156.666 51.8077 156.877 52.1403 156.674 52.4449L157.017 52.521C157.277 52.13 157.025 51.66 156.309 51.5011L156.177 51.6991ZM148.11 49.7181L156.171 51.6977L156.315 51.5025L148.253 49.5229L148.11 49.7181ZM149.951 48.4486L148.052 49.5455L148.311 49.6955L150.211 48.5986L149.951 48.4486ZM149.965 47.5892C150.367 47.779 150.365 48.1616 149.94 48.4557L150.222 48.5915C150.724 48.2437 150.815 47.7166 150.197 47.425L149.965 47.5892ZM139.45 48.7738L133.195 47.249L133.052 47.4444L139.307 48.9693L139.45 48.7738ZM135.941 51.0065L139.508 48.9466L139.249 48.7966L135.681 50.8565L135.941 51.0065ZM132.955 47.3888L135.642 50.9736L135.98 50.8893L133.292 47.3046L132.955 47.3888ZM138.065 53.592L137.046 52.2009L136.707 52.2836L137.727 53.6747L138.065 53.592ZM143.974 49.9736L137.766 53.5584L138.026 53.7084L144.234 50.1236L143.974 49.9736ZM141.623 49.5578L144.033 50.1463L144.176 49.9509L141.767 49.3624L141.623 49.5578ZM137.007 52.3173L141.825 49.5351L141.565 49.3851L136.747 52.1673L137.007 52.3173Z" fill="white"/>
<path d="M159.265 149.354L193.338 149.634V154.313C193.338 156.81 191.671 159.301 188.346 161.205C181.691 165.002 170.907 165.002 164.252 161.205C160.927 159.306 159.265 156.81 159.265 154.313V149.354Z" fill="url(#paint26_linear_6871_197366)"/>
<path d="M188.347 156.54C181.692 160.321 170.908 160.321 164.254 156.54C157.599 152.76 157.604 146.616 164.254 142.835C170.903 139.055 181.692 139.055 188.347 142.835C195.001 146.616 195.001 152.75 188.347 156.54Z" fill="url(#paint27_linear_6871_197366)"/>
<path d="M175.967 158.039C184.085 158.039 190.666 154.151 190.666 149.354C190.666 144.557 184.085 140.668 175.967 140.668C167.85 140.668 161.269 144.557 161.269 149.354C161.269 154.151 167.85 158.039 175.967 158.039Z" fill="url(#paint28_linear_6871_197366)"/>
<path fill-rule="evenodd" clip-rule="evenodd" d="M182.553 146.342C182.244 146.163 181.749 146.199 181.44 146.377L179.771 147.341L178.164 146.949L179.215 146.342C179.524 146.163 179.586 145.878 179.277 145.699C178.968 145.521 178.473 145.521 178.164 145.699L176.65 146.574L170.036 144.968C169.727 144.896 169.418 144.932 169.171 145.075C168.954 145.2 168.892 145.414 168.985 145.574L171.828 149.322L170.345 150.179C170.036 150.357 169.974 150.643 170.283 150.821C170.592 150.999 171.087 150.999 171.396 150.821L172.477 150.196L173.157 151.124L171.519 152.07C171.21 152.249 171.148 152.534 171.458 152.713C171.767 152.891 172.261 152.891 172.57 152.713L173.837 151.981L176.217 155.068C176.372 155.3 176.835 155.389 177.237 155.3C177.33 155.282 177.391 155.247 177.453 155.211C177.67 155.086 177.762 154.89 177.639 154.711L175.074 151.338L180.08 148.448L186.014 149.911C186.323 149.982 186.632 149.947 186.88 149.804C186.941 149.768 187.003 149.732 187.065 149.661C187.219 149.429 187.065 149.161 186.663 149.072L181.286 147.752L182.553 147.02C182.862 146.806 182.893 146.502 182.553 146.342ZM171.241 146.235L175.413 147.252L173.034 148.626L171.241 146.235ZM173.744 149.5L174.424 150.428L178.566 148.037L176.959 147.644L173.744 149.5Z" fill="white"/>
<path d="M182.553 146.342L182.423 146.417L182.429 146.421L182.436 146.424L182.553 146.342ZM179.771 147.341L179.7 147.439L179.814 147.467L179.901 147.416L179.771 147.341ZM178.164 146.949L178.034 146.874L177.841 146.985L178.093 147.046L178.164 146.949ZM179.215 146.342L179.345 146.417L179.215 146.342ZM176.65 146.574L176.578 146.672L176.692 146.699L176.78 146.649L176.65 146.574ZM170.036 144.968L170.107 144.87L170.104 144.869L170.036 144.968ZM168.985 145.574L168.81 145.608L168.817 145.617L168.985 145.574ZM171.828 149.322L171.958 149.397L172.047 149.346L171.997 149.279L171.828 149.322ZM170.345 150.179L170.215 150.104L170.345 150.179ZM171.396 150.821L171.526 150.896L171.396 150.821ZM172.477 150.196L172.647 150.155L172.54 150.01L172.348 150.121L172.477 150.196ZM173.157 151.124L173.287 151.199L173.375 151.149L173.327 151.083L173.157 151.124ZM171.519 152.07L171.649 152.145L171.519 152.07ZM173.837 151.981L174.005 151.938L173.896 151.797L173.707 151.906L173.837 151.981ZM176.217 155.068L176.389 155.03L176.385 155.025L176.217 155.068ZM177.237 155.3L177.179 155.199L177.171 155.201L177.237 155.3ZM177.639 154.711L177.809 154.672L177.807 154.669L177.639 154.711ZM175.074 151.338L174.944 151.263L174.855 151.315L174.905 151.381L175.074 151.338ZM180.08 148.448L180.152 148.35L180.038 148.322L179.95 148.373L180.08 148.448ZM186.014 149.911L185.942 150.008L185.946 150.009L186.014 149.911ZM187.065 149.661L187.229 149.708L187.233 149.704L187.236 149.699L187.065 149.661ZM186.663 149.072L186.591 149.17L186.597 149.171L186.663 149.072ZM181.286 147.752L181.156 147.677L180.963 147.788L181.214 147.849L181.286 147.752ZM182.553 147.02L182.683 147.095L182.694 147.088L182.553 147.02ZM175.413 147.252L175.543 147.327L175.736 147.215L175.485 147.154L175.413 147.252ZM171.241 146.235L171.313 146.137L170.891 146.034L171.073 146.277L171.241 146.235ZM173.034 148.626L172.865 148.668L172.972 148.811L173.164 148.701L173.034 148.626ZM174.424 150.428L174.255 150.47L174.361 150.615L174.554 150.503L174.424 150.428ZM173.744 149.5L173.615 149.425L173.527 149.476L173.575 149.542L173.744 149.5ZM178.566 148.037L178.696 148.112L178.888 148.001L178.637 147.939L178.566 148.037ZM176.959 147.644L177.03 147.547L176.916 147.519L176.829 147.569L176.959 147.644ZM181.57 146.452C181.827 146.304 182.204 146.29 182.423 146.417L182.683 146.267C182.284 146.036 181.672 146.094 181.31 146.302L181.57 146.452ZM179.901 147.416L181.57 146.452L181.31 146.302L179.641 147.266L179.901 147.416ZM178.093 147.046L179.7 147.439L179.843 147.243L178.236 146.851L178.093 147.046ZM179.085 146.267L178.034 146.874L178.294 147.024L179.345 146.417L179.085 146.267ZM179.147 145.774C179.366 145.901 179.342 146.118 179.085 146.267L179.345 146.417C179.706 146.208 179.805 145.855 179.407 145.624L179.147 145.774ZM178.294 145.774C178.531 145.637 178.909 145.637 179.147 145.774L179.407 145.624C179.026 145.404 178.415 145.404 178.034 145.624L178.294 145.774ZM176.78 146.649L178.294 145.774L178.034 145.624L176.52 146.499L176.78 146.649ZM169.965 145.065L176.578 146.672L176.721 146.476L170.107 144.87L169.965 145.065ZM169.3 145.15C169.497 145.036 169.728 145.011 169.968 145.066L170.104 144.869C169.725 144.782 169.339 144.828 169.041 145L169.3 145.15ZM169.159 145.541C169.085 145.413 169.14 145.242 169.3 145.15L169.041 145C168.768 145.157 168.699 145.415 168.811 145.608L169.159 145.541ZM171.997 149.279L169.153 145.532L168.817 145.617L171.66 149.365L171.997 149.279ZM170.475 150.254L171.958 149.397L171.699 149.247L170.215 150.104L170.475 150.254ZM170.413 150.746C170.194 150.619 170.218 150.402 170.475 150.254L170.215 150.104C169.854 150.312 169.754 150.666 170.153 150.896L170.413 150.746ZM171.266 150.746C171.029 150.883 170.65 150.883 170.413 150.746L170.153 150.896C170.534 151.116 171.145 151.116 171.526 150.896L171.266 150.746ZM172.348 150.121L171.266 150.746L171.526 150.896L172.607 150.271L172.348 150.121ZM173.327 151.083L172.647 150.155L172.308 150.238L172.988 151.166L173.327 151.083ZM171.649 152.145L173.287 151.199L173.027 151.049L171.389 151.995L171.649 152.145ZM171.587 152.638C171.368 152.511 171.392 152.293 171.649 152.145L171.389 151.995C171.028 152.204 170.929 152.557 171.328 152.788L171.587 152.638ZM172.44 152.638C172.203 152.775 171.825 152.775 171.587 152.638L171.328 152.788C171.708 153.007 172.319 153.007 172.7 152.788L172.44 152.638ZM173.707 151.906L172.44 152.638L172.7 152.788L173.967 152.056L173.707 151.906ZM176.385 155.025L174.005 151.938L173.669 152.024L176.049 155.111L176.385 155.025ZM177.171 155.201C176.844 155.274 176.499 155.197 176.388 155.03L176.046 155.106C176.244 155.404 176.826 155.505 177.303 155.399L177.171 155.201ZM177.323 155.136C177.258 155.174 177.225 155.191 177.179 155.2L177.295 155.401C177.435 155.374 177.525 155.32 177.583 155.286L177.323 155.136ZM177.468 154.751C177.562 154.886 177.493 155.038 177.323 155.136L177.583 155.286C177.846 155.134 177.963 154.893 177.809 154.672L177.468 154.751ZM174.905 151.381L177.47 154.754L177.807 154.669L175.242 151.296L174.905 151.381ZM179.95 148.373L174.944 151.263L175.203 151.414L180.21 148.523L179.95 148.373ZM186.086 149.813L180.152 148.35L180.008 148.545L185.942 150.008L186.086 149.813ZM186.75 149.729C186.553 149.842 186.322 149.868 186.082 149.812L185.946 150.009C186.325 150.097 186.711 150.051 187.009 149.879L186.75 149.729ZM186.901 149.614C186.852 149.669 186.808 149.695 186.75 149.729L187.009 149.879C187.075 149.841 187.154 149.795 187.229 149.708L186.901 149.614ZM186.597 149.171C186.886 149.235 187.019 149.434 186.894 149.623L187.236 149.699C187.42 149.424 187.244 149.088 186.729 148.973L186.597 149.171ZM181.214 147.849L186.591 149.17L186.735 148.975L181.357 147.654L181.214 147.849ZM182.423 146.945L181.156 147.677L181.415 147.827L182.683 147.095L182.423 146.945ZM182.436 146.424C182.669 146.534 182.682 146.765 182.412 146.952L182.694 147.088C183.042 146.847 183.117 146.471 182.669 146.26L182.436 146.424ZM175.485 147.154L171.313 146.137L171.17 146.332L175.342 147.35L175.485 147.154ZM173.164 148.701L175.543 147.327L175.283 147.177L172.904 148.551L173.164 148.701ZM171.073 146.277L172.865 148.668L173.202 148.584L171.41 146.193L171.073 146.277ZM174.594 150.387L173.914 149.459L173.575 149.542L174.255 150.47L174.594 150.387ZM178.436 147.962L174.294 150.353L174.554 150.503L178.696 148.112L178.436 147.962ZM176.887 147.742L178.494 148.135L178.637 147.939L177.03 147.547L176.887 147.742ZM173.874 149.575L177.089 147.719L176.829 147.569L173.615 149.425L173.874 149.575Z" fill="white"/>
</g>
<defs>
<linearGradient id="paint0_linear_6871_197366" x1="40.0847" y1="104.99" x2="399.172" y2="65.2164" gradientUnits="userSpaceOnUse">
<stop stop-color="#17D1AA"/>
<stop offset="0.0659437" stop-color="#1AC2AE"/>
<stop offset="0.2651" stop-color="#229BB8"/>
<stop offset="0.4616" stop-color="#297CC0"/>
<stop offset="0.6525" stop-color="#2D66C6"/>
<stop offset="0.8349" stop-color="#3059CA"/>
<stop offset="1" stop-color="#3154CB"/>
</linearGradient>
<linearGradient id="paint1_linear_6871_197366" x1="191.728" y1="192.225" x2="191.728" y2="57.5179" gradientUnits="userSpaceOnUse">
<stop stop-color="#1D45BA"/>
<stop offset="0.4204" stop-color="#1D47BA"/>
<stop offset="0.5718" stop-color="#1D4EB9"/>
<stop offset="0.6797" stop-color="#1C59B8"/>
<stop offset="0.767" stop-color="#1B6AB6"/>
<stop offset="0.8417" stop-color="#1A80B3"/>
<stop offset="0.9079" stop-color="#199CB0"/>
<stop offset="0.9663" stop-color="#18BBAD"/>
<stop offset="1" stop-color="#17D1AA"/>
</linearGradient>
<linearGradient id="paint2_linear_6871_197366" x1="108.17" y1="119.487" x2="108.17" y2="149.2" gradientUnits="userSpaceOnUse">
<stop stop-color="#0CDDB3"/>
<stop offset="0.958333" stop-color="#08C29D"/>
</linearGradient>
<linearGradient id="paint3_linear_6871_197366" x1="86.5783" y1="125.395" x2="148.63" y2="119.748" gradientUnits="userSpaceOnUse">
<stop stop-color="#17D1AA"/>
<stop offset="0.0659437" stop-color="#1AC2AE"/>
<stop offset="0.2651" stop-color="#229BB8"/>
<stop offset="0.4616" stop-color="#297CC0"/>
<stop offset="0.6525" stop-color="#2D66C6"/>
<stop offset="0.8349" stop-color="#3059CA"/>
<stop offset="1" stop-color="#3154CB"/>
</linearGradient>
<linearGradient id="paint4_linear_6871_197366" x1="108.126" y1="105.814" x2="108.126" y2="135.529" gradientUnits="userSpaceOnUse">
<stop stop-color="#0CDDB3"/>
<stop offset="0.958333" stop-color="#08C29D"/>
</linearGradient>
<linearGradient id="paint5_linear_6871_197366" x1="123.946" y1="138.717" x2="123.946" y2="110.367" gradientUnits="userSpaceOnUse">
<stop stop-color="#1D45BA"/>
<stop offset="0.4204" stop-color="#1D47BA"/>
<stop offset="0.5718" stop-color="#1D4EB9"/>
<stop offset="0.6797" stop-color="#1C59B8"/>
<stop offset="0.767" stop-color="#1B6AB6"/>
<stop offset="0.8417" stop-color="#1A80B3"/>
<stop offset="0.9079" stop-color="#199CB0"/>
<stop offset="0.9663" stop-color="#18BBAD"/>
<stop offset="1" stop-color="#17D1AA"/>
</linearGradient>
<linearGradient id="paint6_linear_6871_197366" x1="108.223" y1="92.1836" x2="108.223" y2="121.898" gradientUnits="userSpaceOnUse">
<stop stop-color="#0CDDB3"/>
<stop offset="0.958333" stop-color="#08C29D"/>
</linearGradient>
<linearGradient id="paint7_linear_6871_197366" x1="124.05" y1="125.081" x2="124.05" y2="96.7288" gradientUnits="userSpaceOnUse">
<stop stop-color="#1D45BA"/>
<stop offset="0.4204" stop-color="#1D47BA"/>
<stop offset="0.5718" stop-color="#1D4EB9"/>
<stop offset="0.6797" stop-color="#1C59B8"/>
<stop offset="0.767" stop-color="#1B6AB6"/>
<stop offset="0.8417" stop-color="#1A80B3"/>
<stop offset="0.9079" stop-color="#199CB0"/>
<stop offset="0.9663" stop-color="#18BBAD"/>
<stop offset="1" stop-color="#17D1AA"/>
</linearGradient>
<linearGradient id="paint8_linear_6871_197366" x1="108.222" y1="78.5459" x2="108.222" y2="108.26" gradientUnits="userSpaceOnUse">
<stop stop-color="#0CDDB3"/>
<stop offset="0.958333" stop-color="#08C29D"/>
</linearGradient>
<linearGradient id="paint9_linear_6871_197366" x1="124.05" y1="111.449" x2="124.05" y2="83.098" gradientUnits="userSpaceOnUse">
<stop stop-color="#1D45BA"/>
<stop offset="0.4204" stop-color="#1D47BA"/>
<stop offset="0.5718" stop-color="#1D4EB9"/>
<stop offset="0.6797" stop-color="#1C59B8"/>
<stop offset="0.767" stop-color="#1B6AB6"/>
<stop offset="0.8417" stop-color="#1A80B3"/>
<stop offset="0.9079" stop-color="#199CB0"/>
<stop offset="0.9663" stop-color="#18BBAD"/>
<stop offset="1" stop-color="#17D1AA"/>
</linearGradient>
<linearGradient id="paint10_linear_6871_197366" x1="186.047" y1="79.2644" x2="147.671" y2="100.63" gradientUnits="userSpaceOnUse">
<stop stop-color="#0024FF"/>
<stop offset="1" stop-color="#00FFE2"/>
</linearGradient>
<linearGradient id="paint11_linear_6871_197366" x1="181.868" y1="89.909" x2="169.483" y2="97.0261" gradientUnits="userSpaceOnUse">
<stop stop-color="#0024FF"/>
<stop offset="1" stop-color="#00FFE2"/>
</linearGradient>
<linearGradient id="paint12_linear_6871_197366" x1="172.856" y1="95.0005" x2="147.907" y2="109.565" gradientUnits="userSpaceOnUse">
<stop stop-color="#0024FF"/>
<stop offset="1" stop-color="#00FFE2"/>
</linearGradient>
<linearGradient id="paint13_linear_6871_197366" x1="183.972" y1="97.0231" x2="157.983" y2="112.078" gradientUnits="userSpaceOnUse">
<stop stop-color="#0024FF"/>
<stop offset="1" stop-color="#00FFE2"/>
</linearGradient>
<linearGradient id="paint14_linear_6871_197366" x1="157.879" y1="111.948" x2="148.739" y2="117.442" gradientUnits="userSpaceOnUse">
<stop stop-color="#0024FF"/>
<stop offset="1" stop-color="#00FFE2"/>
</linearGradient>
<linearGradient id="paint15_linear_6871_197366" x1="184.24" y1="104.895" x2="149.114" y2="126.465" gradientUnits="userSpaceOnUse">
<stop stop-color="#0024FF"/>
<stop offset="1" stop-color="#00FFE2"/>
</linearGradient>
<linearGradient id="paint16_linear_6871_197366" x1="181.979" y1="115.409" x2="169.56" y2="122.933" gradientUnits="userSpaceOnUse">
<stop stop-color="#0024FF"/>
<stop offset="1" stop-color="#00FFE2"/>
</linearGradient>
<linearGradient id="paint17_linear_6871_197366" x1="158.444" y1="122.069" x2="158.444" y2="136.264" gradientUnits="userSpaceOnUse">
<stop stop-color="#52FCFF" stop-opacity="0"/>
<stop offset="1" stop-color="#52FCFF"/>
</linearGradient>
<linearGradient id="paint18_linear_6871_197366" x1="184.31" y1="122.482" x2="157.309" y2="138.358" gradientUnits="userSpaceOnUse">
<stop stop-color="#0024FF"/>
<stop offset="1" stop-color="#00FFE2"/>
</linearGradient>
<linearGradient id="paint19_linear_6871_197366" x1="157.265" y1="137.62" x2="147.728" y2="144.334" gradientUnits="userSpaceOnUse">
<stop stop-color="#0024FF"/>
<stop offset="1" stop-color="#00FFE2"/>
</linearGradient>
<linearGradient id="paint20_linear_6871_197366" x1="164.605" y1="131.586" x2="164.605" y2="156.935" gradientUnits="userSpaceOnUse">
<stop stop-color="#0CDDB3"/>
<stop offset="0.958333" stop-color="#08C29D"/>
</linearGradient>
<linearGradient id="paint21_linear_6871_197366" x1="180.901" y1="131.153" x2="170.198" y2="135.237" gradientUnits="userSpaceOnUse">
<stop stop-color="#0024FF"/>
<stop offset="1" stop-color="#00FFE2"/>
</linearGradient>
<linearGradient id="paint22_linear_6871_197366" x1="159.83" y1="123.535" x2="208.852" y2="194.595" gradientUnits="userSpaceOnUse">
<stop stop-color="#3124FF"/>
<stop offset="1" stop-color="#00FFE2"/>
</linearGradient>
<linearGradient id="paint23_linear_6871_197366" x1="136.493" y1="53.3338" x2="164.926" y2="72.3711" gradientUnits="userSpaceOnUse">
<stop stop-color="#17D1AA"/>
<stop offset="0.0659437" stop-color="#1AC2AE"/>
<stop offset="0.2651" stop-color="#229BB8"/>
<stop offset="0.4616" stop-color="#297CC0"/>
<stop offset="0.6525" stop-color="#2D66C6"/>
<stop offset="0.8349" stop-color="#3059CA"/>
<stop offset="1" stop-color="#3154CB"/>
</linearGradient>
<linearGradient id="paint24_linear_6871_197366" x1="138.852" y1="36.6823" x2="143.2" y2="74.7817" gradientUnits="userSpaceOnUse">
<stop offset="0.09" stop-color="#84E4A4"/>
<stop offset="0.97" stop-color="#3C53D7"/>
</linearGradient>
<linearGradient id="paint25_linear_6871_197366" x1="165.087" y1="68.2604" x2="165.087" y2="38.8646" gradientUnits="userSpaceOnUse">
<stop stop-color="#1D45BA"/>
<stop offset="0.4204" stop-color="#1D47BA"/>
<stop offset="0.5718" stop-color="#1D4EB9"/>
<stop offset="0.6797" stop-color="#1C59B8"/>
<stop offset="0.767" stop-color="#1B6AB6"/>
<stop offset="0.8417" stop-color="#1A80B3"/>
<stop offset="0.9079" stop-color="#199CB0"/>
<stop offset="0.9663" stop-color="#18BBAD"/>
<stop offset="1" stop-color="#17D1AA"/>
</linearGradient>
<linearGradient id="paint26_linear_6871_197366" x1="173.489" y1="150.228" x2="192.455" y2="162.927" gradientUnits="userSpaceOnUse">
<stop stop-color="#17D1AA"/>
<stop offset="0.0659437" stop-color="#1AC2AE"/>
<stop offset="0.2651" stop-color="#229BB8"/>
<stop offset="0.4616" stop-color="#297CC0"/>
<stop offset="0.6525" stop-color="#2D66C6"/>
<stop offset="0.8349" stop-color="#3059CA"/>
<stop offset="1" stop-color="#3154CB"/>
</linearGradient>
<linearGradient id="paint27_linear_6871_197366" x1="175.062" y1="139.121" x2="177.962" y2="164.536" gradientUnits="userSpaceOnUse">
<stop offset="0.09" stop-color="#84E4A4"/>
<stop offset="0.97" stop-color="#3C53D7"/>
</linearGradient>
<linearGradient id="paint28_linear_6871_197366" x1="192.562" y1="160.185" x2="192.562" y2="140.576" gradientUnits="userSpaceOnUse">
<stop stop-color="#1D45BA"/>
<stop offset="0.4204" stop-color="#1D47BA"/>
<stop offset="0.5718" stop-color="#1D4EB9"/>
<stop offset="0.6797" stop-color="#1C59B8"/>
<stop offset="0.767" stop-color="#1B6AB6"/>
<stop offset="0.8417" stop-color="#1A80B3"/>
<stop offset="0.9079" stop-color="#199CB0"/>
<stop offset="0.9663" stop-color="#18BBAD"/>
<stop offset="1" stop-color="#17D1AA"/>
</linearGradient>
<clipPath id="clip0_6871_197366">
<rect width="280" height="280" fill="white"/>
</clipPath>
</defs>
</svg>
